<svg id="Layer_1" data-name="Layer 1" xmlns="http://www.w3.org/2000/svg" xmlns:xlink="http://www.w3.org/1999/xlink" viewBox="0 0 724.3 706.8"><defs><style>.cls-1,.cls-2{font-size:79.23px;font-family:SegoeScript-Bold, Segoe Script;font-weight:700;}.cls-1{fill:#231f20;}.cls-2{fill:#f15a29;}.cls-3{fill:#c49a6c;stroke:#754c29;stroke-miterlimit:10;}</style></defs><title>act10C</title><text class="cls-1" transform="translate(210.23 366.73) scale(0.94 1)">KUREH</text><text class="cls-2" transform="translate(216.83 364.25) scale(0.94 1)">KUREH</text><text x="-137.85" y="-16.68"/><path class="cls-3" d="M372.52,498c-4.8-2.7-12.36-6.48-13.49-6.48-20.26-8.86-34.72-34.15-38.16-41.45-5.3-11.28-13-27.36-18.42-47.26h0c-.4-1.71-19.53-16.47-26.1-9.88,1.51.56,3.22,18.23,3.22,50,0,13.34,32.83,73.4,30.72,72.65-46.57-16.52-80.07-57.78-95.3-71.81s-27.08-58.06-49.66-82.5c-11.78-11.21-28.65-20.64-26.85-13.05C169.47,479.1,239,557.18,373.75,615.68c79.86,34.67,63.45,117.65,66.87,106.24C470,624.06,451.13,542.2,372.52,498Z" transform="translate(-137.85 -16.68)"/><path class="cls-3" d="M627.48,498c76-29.79,53.35-116.86,96.17-105.07-1.51.56-3.22,18.23-3.22,50,0,13.34-32.83,73.4-30.72,72.65,46.57-16.52,80.07-57.78,95.3-71.81s27.08-58.06,49.66-82.5c11.78-11.21,28.65-20.64,26.85-13.05C830.53,479.1,761,557.18,626.25,615.68c-79.86,34.67-63.45,117.65-66.87,106.24C530,624.06,548.87,542.2,627.48,498Z" transform="translate(-137.85 -16.68)"/><image width="600" height="600" transform="translate(17.62 0) scale(1.16 1.17)" xlink:href="../../../DISE%C3%91O_HOJAS/d75up67-533e5f7d-86e1-4ba3-82a5-df1ec8b0f72e.png"/></svg>